<?xml version="1.0" encoding="utf-8"?>
<!-- Generator: Adobe Illustrator 25.1.0, SVG Export Plug-In . SVG Version: 6.00 Build 0)  -->
<svg version="1.1" id="Camada_1" xmlns="http://www.w3.org/2000/svg" xmlns:xlink="http://www.w3.org/1999/xlink" x="0px" y="0px"
	 viewBox="0 0 20 20" style="enable-background:new 0 0 20 20;" xml:space="preserve">
<style type="text/css">
	.st0{fill:#A5B0C1;}
</style>
<path class="st0" d="M15,7.1h-0.8V5.4c0-2.3-1.9-4.2-4.2-4.2c-2.3,0-4.2,1.9-4.2,4.2v1.7H5c-0.9,0-1.7,0.8-1.7,1.7v8.3
	c0,0.9,0.8,1.7,1.7,1.7h10c0.9,0,1.7-0.8,1.7-1.7V8.7C16.7,7.8,15.9,7.1,15,7.1z M10,14.6c-0.9,0-1.7-0.8-1.7-1.7
	c0-0.9,0.8-1.7,1.7-1.7c0.9,0,1.7,0.8,1.7,1.7C11.7,13.8,10.9,14.6,10,14.6z M12.6,7.1H7.4V5.4C7.4,4,8.6,2.8,10,2.8
	c1.4,0,2.6,1.2,2.6,2.6V7.1z"/>
</svg>
